<?xml version="1.0" encoding="us-ascii" standalone="no"?><svg xmlns="http://www.w3.org/2000/svg" xmlns:xlink="http://www.w3.org/1999/xlink" contentStyleType="text/css" height="849px" preserveAspectRatio="none" style="width:2456px;height:849px;background:#FFFFFF;" version="1.1" viewBox="0 0 2456 849" width="2456px" zoomAndPan="magnify"><defs/><g><!--cluster System--><g id="cluster_System"><path d="M8.5,138 L67.5,138 A3.75,3.75 0 0 1 70,140.5 L77,160.2969 L2140.5,160.2969 A2.5,2.5 0 0 1 2143,162.7969 L2143,839.5 A2.5,2.5 0 0 1 2140.5,842 L8.5,842 A2.5,2.5 0 0 1 6,839.5 L6,140.5 A2.5,2.5 0 0 1 8.5,138 " fill="none" style="stroke:#000000;stroke-width:1.5;"/><line style="stroke:#000000;stroke-width:1.5;" x1="6" x2="77" y1="160.2969" y2="160.2969"/><text fill="#000000" font-family="sans-serif" font-size="14" font-weight="bold" lengthAdjust="spacing" textLength="58" x="10" y="152.9951">System</text></g><!--cluster Xserver--><g id="cluster_Xserver"><polygon fill="none" points="38,410,48,400,290,400,290,520,280,530,38,530,38,410" style="stroke:#181818;stroke-width:1.0;"/><line style="stroke:#181818;stroke-width:1.0;" x1="280" x2="290" y1="410" y2="400"/><line style="stroke:#181818;stroke-width:1.0;" x1="38" x2="280" y1="410" y2="410"/><line style="stroke:#181818;stroke-width:1.0;" x1="280" x2="280" y1="410" y2="530"/><text fill="#000000" font-family="sans-serif" font-size="14" font-weight="bold" lengthAdjust="spacing" textLength="62" x="129" y="425.9951">Xserver</text></g><!--cluster MacOSHomebrewBuildTools--><g id="cluster_MacOSHomebrewBuildTools"><polygon fill="none" points="322,418,332,408,618,408,618,512,608,522,322,522,322,418" style="stroke:#181818;stroke-width:1.0;"/><line style="stroke:#181818;stroke-width:1.0;" x1="608" x2="618" y1="418" y2="408"/><line style="stroke:#181818;stroke-width:1.0;" x1="322" x2="608" y1="418" y2="418"/><line style="stroke:#181818;stroke-width:1.0;" x1="608" x2="608" y1="418" y2="522"/><text fill="#000000" font-family="sans-serif" font-size="14" font-weight="bold" lengthAdjust="spacing" textLength="220" x="356" y="433.9951">MacOSHomebrewBuildTools</text></g><!--cluster MSYS2BuildTools--><g id="cluster_MSYS2BuildTools"><polygon fill="none" points="1308,410,1318,400,2111,400,2111,800,2101,810,1308,810,1308,410" style="stroke:#181818;stroke-width:1.0;"/><line style="stroke:#181818;stroke-width:1.0;" x1="2101" x2="2111" y1="410" y2="400"/><line style="stroke:#181818;stroke-width:1.0;" x1="1308" x2="2101" y1="410" y2="410"/><line style="stroke:#181818;stroke-width:1.0;" x1="2101" x2="2101" y1="410" y2="810"/><text fill="#000000" font-family="sans-serif" font-size="14" font-weight="bold" lengthAdjust="spacing" textLength="134" x="1638.5" y="425.9951">MSYS2BuildTools</text></g><!--cluster FetchTools--><g id="cluster_FetchTools"><polygon fill="none" points="642,418,652,408,805,408,805,512,795,522,642,522,642,418" style="stroke:#181818;stroke-width:1.0;"/><line style="stroke:#181818;stroke-width:1.0;" x1="795" x2="805" y1="418" y2="408"/><line style="stroke:#181818;stroke-width:1.0;" x1="642" x2="795" y1="418" y2="418"/><line style="stroke:#181818;stroke-width:1.0;" x1="795" x2="795" y1="418" y2="522"/><text fill="#000000" font-family="sans-serif" font-size="14" font-weight="bold" lengthAdjust="spacing" textLength="87" x="676" y="433.9951">FetchTools</text></g><!--cluster OpenSSL--><g id="cluster_OpenSSL"><polygon fill="none" points="829,418,839,408,1276,408,1276,512,1266,522,829,522,829,418" style="stroke:#181818;stroke-width:1.0;"/><line style="stroke:#181818;stroke-width:1.0;" x1="1266" x2="1276" y1="418" y2="408"/><line style="stroke:#181818;stroke-width:1.0;" x1="829" x2="1266" y1="418" y2="418"/><line style="stroke:#181818;stroke-width:1.0;" x1="1266" x2="1266" y1="418" y2="522"/><text fill="#000000" font-family="sans-serif" font-size="14" font-weight="bold" lengthAdjust="spacing" textLength="71" x="1013" y="433.9951">OpenSSL</text></g><!--cluster Task--><g id="cluster_Task"><path d="M837.5,6 L875.5,6 A3.75,3.75 0 0 1 878,8.5 L885,28.2969 L1033.5,28.2969 A2.5,2.5 0 0 1 1036,30.7969 L1036,102.5 A2.5,2.5 0 0 1 1033.5,105 L837.5,105 A2.5,2.5 0 0 1 835,102.5 L835,8.5 A2.5,2.5 0 0 1 837.5,6 " fill="none" style="stroke:#000000;stroke-width:1.5;"/><line style="stroke:#000000;stroke-width:1.5;" x1="835" x2="885" y1="28.2969" y2="28.2969"/><text fill="#000000" font-family="sans-serif" font-size="14" font-weight="bold" lengthAdjust="spacing" textLength="37" x="839" y="20.9951">Task</text></g><!--cluster Tools--><g id="cluster_Tools"><path d="M2169.5,349 L2213.5,349 A3.75,3.75 0 0 1 2216,351.5 L2223,371.2969 L2446.5,371.2969 A2.5,2.5 0 0 1 2449,373.7969 L2449,559.5 A2.5,2.5 0 0 1 2446.5,562 L2169.5,562 A2.5,2.5 0 0 1 2167,559.5 L2167,351.5 A2.5,2.5 0 0 1 2169.5,349 " fill="none" style="stroke:#000000;stroke-width:1.5;"/><line style="stroke:#000000;stroke-width:1.5;" x1="2167" x2="2223" y1="371.2969" y2="371.2969"/><text fill="#000000" font-family="sans-serif" font-size="14" font-weight="bold" lengthAdjust="spacing" textLength="43" x="2171" y="363.9951">Tools</text></g><!--cluster Perl--><g id="cluster_Perl"><polygon fill="none" points="2199,410,2209,400,2417,400,2417,520,2407,530,2199,530,2199,410" style="stroke:#181818;stroke-width:1.0;"/><line style="stroke:#181818;stroke-width:1.0;" x1="2407" x2="2417" y1="410" y2="400"/><line style="stroke:#181818;stroke-width:1.0;" x1="2199" x2="2407" y1="410" y2="410"/><line style="stroke:#181818;stroke-width:1.0;" x1="2407" x2="2407" y1="410" y2="530"/><text fill="#000000" font-family="sans-serif" font-size="14" font-weight="bold" lengthAdjust="spacing" textLength="31" x="2288.5" y="425.9951">Perl</text></g><!--class Debian--><g id="elem_Debian"><rect codeLine="7" fill="#F1F1F1" height="113.1875" id="Debian" rx="2.5" ry="2.5" style="stroke:#181818;stroke-width:0.5;" width="81" x="592.5" y="173"/><ellipse cx="607.5" cy="189" fill="#ADD1B2" rx="11" ry="11" style="stroke:#181818;stroke-width:1.0;"/><path d="M610.4688,194.6406 Q609.8906,194.9375 609.25,195.0781 Q608.6094,195.2344 607.9063,195.2344 Q605.4063,195.2344 604.0781,193.5938 Q602.7656,191.9375 602.7656,188.8125 Q602.7656,185.6875 604.0781,184.0313 Q605.4063,182.375 607.9063,182.375 Q608.6094,182.375 609.25,182.5313 Q609.9063,182.6875 610.4688,182.9844 L610.4688,185.7031 Q609.8438,185.125 609.25,184.8594 Q608.6563,184.5781 608.0313,184.5781 Q606.6875,184.5781 606,185.6563 Q605.3125,186.7188 605.3125,188.8125 Q605.3125,190.9063 606,191.9844 Q606.6875,193.0469 608.0313,193.0469 Q608.6563,193.0469 609.25,192.7813 Q609.8438,192.5 610.4688,191.9219 L610.4688,194.6406 Z " fill="#000000"/><text fill="#000000" font-family="sans-serif" font-size="14" lengthAdjust="spacing" textLength="49" x="621.5" y="193.8467">Debian</text><line style="stroke:#181818;stroke-width:0.5;" x1="593.5" x2="672.5" y1="205" y2="205"/><ellipse cx="603.5" cy="238.9453" fill="none" rx="3" ry="3" style="stroke:#038048;stroke-width:1.0;"/><text fill="#000000" font-family="sans-serif" font-size="14" lengthAdjust="spacing" textLength="50" x="612.5" y="242.292">apt-get</text><line style="stroke:#181818;stroke-width:1.0;stroke-dasharray:1.0,2.0;" x1="593.5" x2="602.5" y1="221.1484" y2="221.1484"/><text fill="#000000" font-family="sans-serif" font-size="14" lengthAdjust="spacing" textLength="61" x="602.5" y="225.4951">Installers</text><line style="stroke:#181818;stroke-width:1.0;stroke-dasharray:1.0,2.0;" x1="663.5" x2="672.5" y1="221.1484" y2="221.1484"/><ellipse cx="603.5" cy="275.5391" fill="none" rx="3" ry="3" style="stroke:#038048;stroke-width:1.0;"/><text fill="#000000" font-family="sans-serif" font-size="14" lengthAdjust="spacing" textLength="29" x="612.5" y="278.8857">Xvfb</text><line style="stroke:#181818;stroke-width:1.0;stroke-dasharray:1.0,2.0;" x1="593.5" x2="604" y1="257.7422" y2="257.7422"/><text fill="#000000" font-family="sans-serif" font-size="14" lengthAdjust="spacing" textLength="58" x="604" y="262.0889">Services</text><line style="stroke:#181818;stroke-width:1.0;stroke-dasharray:1.0,2.0;" x1="662" x2="672.5" y1="257.7422" y2="257.7422"/></g><path d="M708.5,212 L708.5,220.5664 L641.5,274.0391 L708.5,228.5664 L708.5,237.1328 A0,0 0 0 0 708.5,237.1328 L859.5,237.1328 A0,0 0 0 0 859.5,237.1328 L859.5,222 L849.5,212 L708.5,212 A0,0 0 0 0 708.5,212 " fill="#FEFFDD" style="stroke:#181818;stroke-width:0.5;"/><path d="M849.5,212 L849.5,222 L859.5,222 L849.5,212 " fill="#FEFFDD" style="stroke:#181818;stroke-width:0.5;"/><text fill="#000000" font-family="sans-serif" font-size="13" lengthAdjust="spacing" textLength="22" x="714.5" y="229.0669">Set</text><text fill="#000000" font-family="monospace" font-size="13" lengthAdjust="spacing" textLength="104" x="740.5" y="229.0669">$ENV{DISPLAY}</text><!--class MacOSHomebrew--><g id="elem_MacOSHomebrew"><rect codeLine="26" fill="#F1F1F1" height="76.5938" id="MacOSHomebrew" rx="2.5" ry="2.5" style="stroke:#181818;stroke-width:0.5;" width="155" x="894.5" y="191"/><ellipse cx="909.5" cy="207" fill="#ADD1B2" rx="11" ry="11" style="stroke:#181818;stroke-width:1.0;"/><path d="M912.4688,212.6406 Q911.8906,212.9375 911.25,213.0781 Q910.6094,213.2344 909.9063,213.2344 Q907.4063,213.2344 906.0781,211.5938 Q904.7656,209.9375 904.7656,206.8125 Q904.7656,203.6875 906.0781,202.0313 Q907.4063,200.375 909.9063,200.375 Q910.6094,200.375 911.25,200.5313 Q911.9063,200.6875 912.4688,200.9844 L912.4688,203.7031 Q911.8438,203.125 911.25,202.8594 Q910.6563,202.5781 910.0313,202.5781 Q908.6875,202.5781 908,203.6563 Q907.3125,204.7188 907.3125,206.8125 Q907.3125,208.9063 908,209.9844 Q908.6875,211.0469 910.0313,211.0469 Q910.6563,211.0469 911.25,210.7813 Q911.8438,210.5 912.4688,209.9219 L912.4688,212.6406 Z " fill="#000000"/><text fill="#000000" font-family="sans-serif" font-size="14" lengthAdjust="spacing" textLength="123" x="923.5" y="211.8467">MacOSHomebrew</text><line style="stroke:#181818;stroke-width:0.5;" x1="895.5" x2="1048.5" y1="223" y2="223"/><ellipse cx="905.5" cy="256.9453" fill="none" rx="3" ry="3" style="stroke:#038048;stroke-width:1.0;"/><text fill="#000000" font-family="sans-serif" font-size="14" lengthAdjust="spacing" textLength="34" x="914.5" y="260.292">brew</text><line style="stroke:#181818;stroke-width:1.0;stroke-dasharray:1.0,2.0;" x1="895.5" x2="941.5" y1="239.1484" y2="239.1484"/><text fill="#000000" font-family="sans-serif" font-size="14" lengthAdjust="spacing" textLength="61" x="941.5" y="243.4951">Installers</text><line style="stroke:#181818;stroke-width:1.0;stroke-dasharray:1.0,2.0;" x1="1002.5" x2="1048.5" y1="239.1484" y2="239.1484"/></g><!--class MSYS2--><g id="elem_MSYS2"><rect codeLine="37" fill="#F1F1F1" height="92.8906" id="MSYS2" rx="2.5" ry="2.5" style="stroke:#181818;stroke-width:0.5;" width="81" x="1084.5" y="183"/><ellipse cx="1099.95" cy="199" fill="#ADD1B2" rx="11" ry="11" style="stroke:#181818;stroke-width:1.0;"/><path d="M1102.9188,204.6406 Q1102.3406,204.9375 1101.7,205.0781 Q1101.0594,205.2344 1100.3563,205.2344 Q1097.8563,205.2344 1096.5281,203.5938 Q1095.2156,201.9375 1095.2156,198.8125 Q1095.2156,195.6875 1096.5281,194.0313 Q1097.8563,192.375 1100.3563,192.375 Q1101.0594,192.375 1101.7,192.5313 Q1102.3563,192.6875 1102.9188,192.9844 L1102.9188,195.7031 Q1102.2938,195.125 1101.7,194.8594 Q1101.1063,194.5781 1100.4813,194.5781 Q1099.1375,194.5781 1098.45,195.6563 Q1097.7625,196.7188 1097.7625,198.8125 Q1097.7625,200.9063 1098.45,201.9844 Q1099.1375,203.0469 1100.4813,203.0469 Q1101.1063,203.0469 1101.7,202.7813 Q1102.2938,202.5 1102.9188,201.9219 L1102.9188,204.6406 Z " fill="#000000"/><text fill="#000000" font-family="sans-serif" font-size="14" lengthAdjust="spacing" textLength="48" x="1114.05" y="203.8467">MSYS2</text><line style="stroke:#181818;stroke-width:0.5;" x1="1085.5" x2="1164.5" y1="215" y2="215"/><ellipse cx="1095.5" cy="248.9453" fill="none" rx="3" ry="3" style="stroke:#038048;stroke-width:1.0;"/><text fill="#000000" font-family="sans-serif" font-size="14" lengthAdjust="spacing" textLength="55" x="1104.5" y="252.292">pacman</text><ellipse cx="1095.5" cy="265.2422" fill="none" rx="3" ry="3" style="stroke:#038048;stroke-width:1.0;"/><text fill="#000000" font-family="sans-serif" font-size="14" lengthAdjust="spacing" textLength="43" x="1104.5" y="268.5889">choco</text><line style="stroke:#181818;stroke-width:1.0;stroke-dasharray:1.0,2.0;" x1="1085.5" x2="1094.5" y1="231.1484" y2="231.1484"/><text fill="#000000" font-family="sans-serif" font-size="14" lengthAdjust="spacing" textLength="61" x="1094.5" y="235.4951">Installers</text><line style="stroke:#181818;stroke-width:1.0;stroke-dasharray:1.0,2.0;" x1="1155.5" x2="1164.5" y1="231.1484" y2="231.1484"/></g><!--entity apt:xvfb--><g id="elem_apt:xvfb"><ellipse cx="231" cy="477" fill="#F1F1F1" rx="8" ry="8" style="stroke:#181818;stroke-width:0.5;"/><text fill="#000000" font-family="sans-serif" font-size="14" lengthAdjust="spacing" textLength="54" x="204" y="506.9951">apt:xvfb</text></g><!--entity apt:xauth--><g id="elem_apt:xauth"><ellipse cx="121" cy="477" fill="#F1F1F1" rx="8" ry="8" style="stroke:#181818;stroke-width:0.5;"/><text fill="#000000" font-family="sans-serif" font-size="14" lengthAdjust="spacing" textLength="65" x="88.5" y="506.9951">apt:xauth</text></g><!--entity brew:pkg-config--><g id="elem_brew:pkg-config"><ellipse cx="538" cy="477" fill="#F1F1F1" rx="8" ry="8" style="stroke:#181818;stroke-width:0.5;"/><text fill="#000000" font-family="sans-serif" font-size="14" lengthAdjust="spacing" textLength="112" x="482" y="506.9951">brew:pkg-config</text></g><!--entity pacman:mingw-w64-x86_64-make--><g id="elem_pacman:mingw-w64-x86_64-make"><ellipse cx="1477" cy="477" fill="#F1F1F1" rx="8" ry="8" style="stroke:#181818;stroke-width:0.5;"/><text fill="#000000" font-family="sans-serif" font-size="14" lengthAdjust="spacing" textLength="237" x="1358.5" y="506.9951">pacman:mingw-w64-x86_64-make</text></g><!--entity pacman:mingw-w64-x86_64-toolchain--><g id="elem_pacman:mingw-w64-x86_64-toolchain"><ellipse cx="1777" cy="477" fill="#F1F1F1" rx="8" ry="8" style="stroke:#181818;stroke-width:0.5;"/><text fill="#000000" font-family="sans-serif" font-size="14" lengthAdjust="spacing" textLength="262" x="1646" y="506.9951">pacman:mingw-w64-x86_64-toolchain</text></g><!--entity pacman:autoconf--><g id="elem_pacman:autoconf"><ellipse cx="2019" cy="477" fill="#F1F1F1" rx="8" ry="8" style="stroke:#181818;stroke-width:0.5;"/><text fill="#000000" font-family="sans-serif" font-size="14" lengthAdjust="spacing" textLength="121" x="1958.5" y="506.9951">pacman:autoconf</text></g><!--entity pacman:automake--><g id="elem_pacman:automake"><ellipse cx="1477" cy="638" fill="#F1F1F1" rx="8" ry="8" style="stroke:#181818;stroke-width:0.5;"/><text fill="#000000" font-family="sans-serif" font-size="14" lengthAdjust="spacing" textLength="129" x="1412.5" y="667.9951">pacman:automake</text></g><!--entity pacman:libtool--><g id="elem_pacman:libtool"><ellipse cx="1642" cy="638" fill="#F1F1F1" rx="8" ry="8" style="stroke:#181818;stroke-width:0.5;"/><text fill="#000000" font-family="sans-serif" font-size="14" lengthAdjust="spacing" textLength="101" x="1591.5" y="667.9951">pacman:libtool</text></g><!--entity pacman:make--><g id="elem_pacman:make"><ellipse cx="1792" cy="638" fill="#F1F1F1" rx="8" ry="8" style="stroke:#181818;stroke-width:0.5;"/><text fill="#000000" font-family="sans-serif" font-size="14" lengthAdjust="spacing" textLength="98" x="1743" y="667.9951">pacman:make</text></g><!--entity pacman:patch--><g id="elem_pacman:patch"><ellipse cx="1477" cy="757" fill="#F1F1F1" rx="8" ry="8" style="stroke:#181818;stroke-width:0.5;"/><text fill="#000000" font-family="sans-serif" font-size="14" lengthAdjust="spacing" textLength="99" x="1427.5" y="786.9951">pacman:patch</text></g><!--entity pacman:mingw-w64-x86_64-libtool--><g id="elem_pacman:mingw-w64-x86_64-libtool"><ellipse cx="1697" cy="757" fill="#F1F1F1" rx="8" ry="8" style="stroke:#181818;stroke-width:0.5;"/><text fill="#000000" font-family="sans-serif" font-size="14" lengthAdjust="spacing" textLength="240" x="1577" y="786.9951">pacman:mingw-w64-x86_64-libtool</text></g><!--entity pkg:git--><g id="elem_pkg:git"><ellipse cx="757" cy="477" fill="#F1F1F1" rx="8" ry="8" style="stroke:#181818;stroke-width:0.5;"/><text fill="#000000" font-family="sans-serif" font-size="14" lengthAdjust="spacing" textLength="48" x="733" y="506.9951">pkg:git</text></g><!--entity pacman:mingw-w64-x86_64-openssl--><g id="elem_pacman:mingw-w64-x86_64-openssl"><ellipse cx="1125" cy="477" fill="#F1F1F1" rx="8" ry="8" style="stroke:#181818;stroke-width:0.5;"/><text fill="#000000" font-family="sans-serif" font-size="14" lengthAdjust="spacing" textLength="254" x="998" y="506.9951">pacman:mingw-w64-x86_64-openssl</text></g><!--entity brew:openssl--><g id="elem_brew:openssl"><ellipse cx="900" cy="477" fill="#F1F1F1" rx="8" ry="8" style="stroke:#181818;stroke-width:0.5;"/><text fill="#000000" font-family="sans-serif" font-size="14" lengthAdjust="spacing" textLength="94" x="853" y="506.9951">brew:openssl</text></g><!--class Install--><g id="elem_Install"><rect codeLine="80" fill="#F1F1F1" height="48" id="Install" rx="2.5" ry="2.5" style="stroke:#181818;stroke-width:0.5;" width="71" x="851.5" y="41"/><ellipse cx="866.5" cy="57" fill="#B4A7E5" rx="11" ry="11" style="stroke:#181818;stroke-width:1.0;"/><path d="M862.4219,52.7656 L862.4219,50.6094 L869.8125,50.6094 L869.8125,52.7656 L867.3438,52.7656 L867.3438,60.8438 L869.8125,60.8438 L869.8125,63 L862.4219,63 L862.4219,60.8438 L864.8906,60.8438 L864.8906,52.7656 L862.4219,52.7656 Z " fill="#000000"/><text fill="#000000" font-family="sans-serif" font-size="14" font-style="italic" lengthAdjust="spacing" textLength="39" x="880.5" y="61.8467">Install</text><line style="stroke:#181818;stroke-width:0.5;" x1="852.5" x2="921.5" y1="73" y2="73"/><line style="stroke:#181818;stroke-width:0.5;" x1="852.5" x2="921.5" y1="81" y2="81"/></g><!--class Test--><g id="elem_Test"><rect codeLine="81" fill="#F1F1F1" height="48" id="Test" rx="2.5" ry="2.5" style="stroke:#181818;stroke-width:0.5;" width="62" x="958" y="41"/><ellipse cx="973" cy="57" fill="#B4A7E5" rx="11" ry="11" style="stroke:#181818;stroke-width:1.0;"/><path d="M968.9219,52.7656 L968.9219,50.6094 L976.3125,50.6094 L976.3125,52.7656 L973.8438,52.7656 L973.8438,60.8438 L976.3125,60.8438 L976.3125,63 L968.9219,63 L968.9219,60.8438 L971.3906,60.8438 L971.3906,52.7656 L968.9219,52.7656 Z " fill="#000000"/><text fill="#000000" font-family="sans-serif" font-size="14" font-style="italic" lengthAdjust="spacing" textLength="30" x="987" y="61.8467">Test</text><line style="stroke:#181818;stroke-width:0.5;" x1="959" x2="1019" y1="73" y2="73"/><line style="stroke:#181818;stroke-width:0.5;" x1="959" x2="1019" y1="81" y2="81"/></g><!--entity cpm--><g id="elem_cpm"><ellipse cx="2366" cy="477" fill="#F1F1F1" rx="8" ry="8" style="stroke:#181818;stroke-width:0.5;"/><text fill="#000000" font-family="sans-serif" font-size="14" lengthAdjust="spacing" textLength="30" x="2351" y="506.9951">cpm</text></g><!--entity cpanm--><g id="elem_cpanm"><ellipse cx="2273" cy="477" fill="#F1F1F1" rx="8" ry="8" style="stroke:#181818;stroke-width:0.5;"/><text fill="#000000" font-family="sans-serif" font-size="14" lengthAdjust="spacing" textLength="47" x="2249.5" y="506.9951">cpanm</text></g><!--reverse link Install to Debian--><g id="link_Install_Debian"><path d="M831.23,73.32 C788.96,81.27 731.45,97.48 691,130 C676.85,141.38 665.4,157.2 656.54,172.85 " fill="none" id="Install-backto-Debian" style="stroke:#181818;stroke-width:1.0;stroke-dasharray:7.0,7.0;"/><polygon fill="none" points="830.3,66.38,851.19,69.96,832.63,80.18,830.3,66.38" style="stroke:#181818;stroke-width:1.0;"/></g><!--reverse link Test to Debian--><g id="link_Test_Debian"><path d="M956.29,102.96 C951.22,106.94 945.74,110.46 940,113 C914.64,124.22 714.59,115.43 691,130 C674.79,140.01 662.58,156.37 653.65,172.9 " fill="none" id="Test-backto-Debian" style="stroke:#181818;stroke-width:1.0;stroke-dasharray:7.0,7.0;"/><polygon fill="none" points="951.53,97.82,970.94,89.31,961.08,108.06,951.53,97.82" style="stroke:#181818;stroke-width:1.0;"/></g><!--link Debian to Xserver--><g id="link_Debian_Xserver"><path codeLine="23" d="M579.26,233.23 C451.53,240.87 135.23,267 65,341 C54.735,351.815 48.3719,365.4831 44.6117,379.945 C43.6717,383.5605 42.8943,387.2255 42.2594,390.9081 C41.9419,392.7493 41.66,394.5949 41.4112,396.4409 C41.2868,397.3638 41.1706,398.2869 41.0624,399.2095 C41.0354,399.4402 41.0088,399.6708 40.9828,399.9014 " fill="none" id="Debian-Xserver" style="stroke:#181818;stroke-width:1.0;"/><polygon fill="none" points="592.45,232.46,586.2313,228.8092,580.4696,233.1453,586.6882,236.7961,592.45,232.46" style="stroke:#181818;stroke-width:1.0;"/><polygon fill="#181818" points="40.9828,399.9014,45.9681,391.4076,41.5443,394.9331,38.0188,390.5092,40.9828,399.9014" style="stroke:#181818;stroke-width:1.0;"/><text fill="#000000" font-family="sans-serif" font-size="13" lengthAdjust="spacing" textLength="55" x="95" y="329.0669">depends</text></g><!--reverse link Install to MacOSHomebrew--><g id="link_Install_MacOSHomebrew"><path d="M908.61,107.31 C922.06,133.02 939.22,165.83 952.29,190.83 " fill="none" id="Install-backto-MacOSHomebrew" style="stroke:#181818;stroke-width:1.0;stroke-dasharray:7.0,7.0;"/><polygon fill="none" points="902.25,110.25,899.18,89.28,914.65,103.76,902.25,110.25" style="stroke:#181818;stroke-width:1.0;"/></g><!--reverse link Test to MacOSHomebrew--><g id="link_Test_MacOSHomebrew"><path d="M984.48,109.21 C981.82,134.62 978.49,166.44 975.94,190.83 " fill="none" id="Test-backto-MacOSHomebrew" style="stroke:#181818;stroke-width:1.0;stroke-dasharray:7.0,7.0;"/><polygon fill="none" points="977.52,108.45,986.56,89.28,991.45,109.9,977.52,108.45" style="stroke:#181818;stroke-width:1.0;"/></g><!--link MacOSHomebrew to brew:pkg-config--><g id="link_MacOSHomebrew_brew:pkg-config"><path codeLine="34" d="M901.24,274.37 C893.21,278.59 885.02,282.56 877,286 C804.78,316.94 777.17,301.94 709,341 C648.18,375.85 585.8,430.99 556,458.78 " fill="none" id="MacOSHomebrew-brew:pkg-config" style="stroke:#181818;stroke-width:1.0;"/><polygon fill="none" points="912.86,268.06,905.6787,267.4052,902.3122,273.7822,909.4935,274.437,912.86,268.06" style="stroke:#181818;stroke-width:1.0;"/><polygon fill="#181818" points="546.24,467.99,555.5302,464.7201,549.8757,464.5575,550.0382,458.903,546.24,467.99" style="stroke:#181818;stroke-width:1.0;"/><line style="stroke:#181818;stroke-width:1.0;" x1="549.8757" x2="555.695" y1="464.5575" y2="459.07"/><text fill="#000000" font-family="sans-serif" font-size="13" lengthAdjust="spacing" textLength="55" x="765" y="329.0669">depends</text></g><!--reverse link Install to MSYS2--><g id="link_Install_MSYS2"><path d="M923.23,102.32 C928.84,106.47 934.83,110.21 941,113 C966.74,124.65 1043.47,114.37 1067,130 C1085.84,142.52 1099.41,163.42 1108.66,182.76 " fill="none" id="Install-backto-MSYS2" style="stroke:#181818;stroke-width:1.0;stroke-dasharray:7.0,7.0;"/><polygon fill="none" points="918.46,107.46,907.76,89.17,927.53,96.79,918.46,107.46" style="stroke:#181818;stroke-width:1.0;"/></g><!--reverse link Test to MSYS2--><g id="link_Test_MSYS2"><path d="M1036.12,100.17 C1046.94,109.19 1057.92,119.4 1067,130 C1080.55,145.83 1092.74,165.25 1102.41,182.64 " fill="none" id="Test-backto-MSYS2" style="stroke:#181818;stroke-width:1.0;stroke-dasharray:7.0,7.0;"/><polygon fill="none" points="1031.42,105.38,1020.08,87.48,1040.11,94.4,1031.42,105.38" style="stroke:#181818;stroke-width:1.0;"/></g><!--link MSYS2 to MSYS2BuildTools--><g id="link_MSYS2_MSYS2BuildTools"><path codeLine="52" d="M1177.44,257.22 C1210.18,276.41 1250.76,305.16 1276,341 C1284.8675,353.5925 1291.7931,368.1631 1297.1956,382.9756 C1299.8969,390.3819 1302.2173,397.8486 1304.2094,405.1588 C1305.2054,408.8138 1306.1193,412.4298 1306.9576,415.9794 C1307.1672,416.8669 1307.3721,417.7501 1307.5723,418.6288 C1307.6724,419.0682 1307.7714,419.5064 1307.8692,419.9434 " fill="none" id="MSYS2-MSYS2BuildTools" style="stroke:#181818;stroke-width:1.0;"/><polygon fill="none" points="1165.78,250.59,1169.0172,257.0336,1176.2103,256.5238,1172.9731,250.0801,1165.78,250.59" style="stroke:#181818;stroke-width:1.0;"/><polygon fill="#181818" points="1307.8692,419.9434,1309.8067,410.287,1306.7771,415.0642,1301.9999,412.0345,1307.8692,419.9434" style="stroke:#181818;stroke-width:1.0;"/><text fill="#000000" font-family="sans-serif" font-size="13" lengthAdjust="spacing" textLength="55" x="1270" y="329.0669">depends</text></g><!--link Debian to Perl--><g id="link_Debian_Perl"><path codeLine="59" d="M684.89,283.03 C686.89,284.12 688.93,285.11 691,286 C691,286 1700,333 1700,333 C1722.38,333.74 2083.01,330.92 2103,341 C2136.285,357.785 2162,390.75 2179.5325,419.9025 C2183.9156,427.1906 2187.7873,434.2405 2191.1381,440.7396 C2192.8135,443.9892 2194.3586,447.1012 2195.7723,450.0364 C2196.4791,451.504 2197.1531,452.9274 2197.7941,454.3018 C2198.1146,454.989 2198.4268,455.6639 2198.7308,456.3259 C2198.8067,456.4914 2198.8822,456.6561 2198.9572,456.82 " fill="none" id="Debian-Perl" style="stroke:#181818;stroke-width:1.0;"/><polygon fill="#181818" points="673.81,275.91,676.6967,282.5181,683.9067,282.3951,681.0201,275.787,673.81,275.91" style="stroke:#181818;stroke-width:1.0;"/><polygon fill="#181818" points="2198.9572,456.82,2198.8515,446.9717,2196.8776,452.273,2191.5763,450.2991,2198.9572,456.82" style="stroke:#181818;stroke-width:1.0;"/><text fill="#000000" font-family="sans-serif" font-size="13" lengthAdjust="spacing" textLength="44" x="1701" y="329.0669">installs</text></g><!--link MacOSHomebrew to Perl--><g id="link_MacOSHomebrew_Perl"><path codeLine="60" d="M1037.73,274.25 C1047.23,278.97 1057.14,283.1 1067,286 C1213.6,329.14 1601.5,306.16 1754,316 C1842.58,321.72 1864.45,326.86 1953,333 C1969.65,334.15 2088.23,333.24 2103,341 C2136,358.34 2161.71,391.315 2179.3112,420.3338 C2183.7116,427.5884 2187.6051,434.5959 2190.979,441.0499 C2192.666,444.2769 2194.223,447.3656 2195.6486,450.2777 C2196.3614,451.7337 2197.0413,453.1456 2197.6881,454.5085 C2198.0116,455.19 2198.3267,455.8592 2198.6336,456.5157 C2198.7103,456.6798 2198.7865,456.8431 2198.8621,457.0055 " fill="none" id="MacOSHomebrew-Perl" style="stroke:#181818;stroke-width:1.0;"/><polygon fill="#181818" points="1025.94,268.01,1029.369,274.3537,1036.5435,273.6283,1033.1145,267.2846,1025.94,268.01" style="stroke:#181818;stroke-width:1.0;"/><polygon fill="#181818" points="2198.8621,457.0055,2198.6884,447.1582,2196.7512,452.473,2191.4364,450.5358,2198.8621,457.0055" style="stroke:#181818;stroke-width:1.0;"/><text fill="#000000" font-family="sans-serif" font-size="13" lengthAdjust="spacing" textLength="44" x="1954" y="329.0669">installs</text></g><!--link MSYS2 to Perl--><g id="link_MSYS2_Perl"><path codeLine="61" d="M1178.76,232.75 C1317.07,239.17 1696.22,260.83 2007,316 C2050.41,323.71 2066.23,316.67 2103,341 C2134.09,361.57 2159.77,394.595 2177.8338,422.8313 C2186.8656,436.9494 2193.9934,449.8703 2198.9414,459.4386 " fill="none" id="MSYS2-Perl" style="stroke:#181818;stroke-width:1.0;"/><polygon fill="#181818" points="1165.75,232.16,1171.5637,236.4263,1177.7378,232.7007,1171.9241,228.4344,1165.75,232.16" style="stroke:#181818;stroke-width:1.0;"/><polygon fill="#181818" points="2198.9414,459.4386,2198.3604,449.6069,2196.6447,454.9973,2191.2543,453.2816,2198.9414,459.4386" style="stroke:#181818;stroke-width:1.0;"/><text fill="#000000" font-family="sans-serif" font-size="13" lengthAdjust="spacing" textLength="44" x="2089" y="329.0669">installs</text></g><!--link Debian to pkg:git--><g id="link_Debian_pkg:git"><path codeLine="67" d="M627.9,299.42 C628.86,310.89 631,322.48 635,333 C656.08,388.5 708.81,437.34 737.57,460.95 " fill="none" id="Debian-pkg:git" style="stroke:#181818;stroke-width:1.0;"/><polygon fill="none" points="627.27,286.07,623.5512,292.2482,627.8239,298.0572,631.5427,291.879,627.27,286.07" style="stroke:#181818;stroke-width:1.0;"/><polygon fill="#181818" points="747.94,469.23,743.3974,460.4913,744.0308,466.1126,738.4095,466.7459,747.94,469.23" style="stroke:#181818;stroke-width:1.0;"/><line style="stroke:#181818;stroke-width:1.0;" x1="744.0308" x2="737.775" y1="466.1126" y2="461.125"/><text fill="#000000" font-family="sans-serif" font-size="13" lengthAdjust="spacing" textLength="55" x="636" y="329.0669">depends</text></g><!--link MacOSHomebrew to pkg:git--><g id="link_MacOSHomebrew_pkg:git"><path codeLine="68" d="M899.46,275.78 C874.76,293.8 848.5,316.18 829,341 C800.07,377.82 776.85,427.94 765.18,455.59 " fill="none" id="MacOSHomebrew-pkg:git" style="stroke:#181818;stroke-width:1.0;"/><polygon fill="none" points="910.29,268.07,903.0824,268.2942,900.5172,275.0336,907.7248,274.8094,910.29,268.07" style="stroke:#181818;stroke-width:1.0;"/><polygon fill="#181818" points="760.17,467.81,767.2906,461.0058,762.0704,463.1852,759.891,457.9651,760.17,467.81" style="stroke:#181818;stroke-width:1.0;"/><line style="stroke:#181818;stroke-width:1.0;" x1="762.0704" x2="765.1" y1="463.1852" y2="455.78"/><text fill="#000000" font-family="sans-serif" font-size="13" lengthAdjust="spacing" textLength="55" x="849" y="329.0669">depends</text></g><!--link MSYS2 to pkg:git--><g id="link_MSYS2_pkg:git"><path codeLine="69" d="M1074.66,281.9 C1050.9,302.35 1020.8,323.3 989,333 C971.97,338.19 844.03,331.46 829,341 C788.33,366.8 769.15,423.78 761.42,454.83 " fill="none" id="MSYS2-pkg:git" style="stroke:#181818;stroke-width:1.0;"/><polygon fill="none" points="1084.44,273.2,1077.2985,274.1998,1075.4747,281.1765,1082.6162,280.1767,1084.44,273.2" style="stroke:#181818;stroke-width:1.0;"/><polygon fill="#181818" points="758.51,467.74,764.3982,459.8451,759.6138,462.8634,756.5956,458.079,758.51,467.74" style="stroke:#181818;stroke-width:1.0;"/><line style="stroke:#181818;stroke-width:1.0;" x1="759.6138" x2="761.37" y1="462.8634" y2="455.055"/><text fill="#000000" font-family="sans-serif" font-size="13" lengthAdjust="spacing" textLength="55" x="1027" y="329.0669">depends</text></g><!--link MSYS2 to pacman:mingw-w64-x86_64-openssl--><g id="link_MSYS2_pacman:mingw-w64-x86_64-openssl"><path codeLine="77" d="M1125,289.37 C1125,342.63 1125,418.13 1125,454.61 " fill="none" id="MSYS2-pacman:mingw-w64-x86_64-openssl" style="stroke:#181818;stroke-width:1.0;"/><polygon fill="none" points="1125,276.1,1121,282.1,1125,288.1,1129,282.1,1125,276.1" style="stroke:#181818;stroke-width:1.0;"/><polygon fill="#181818" points="1125,467.69,1129,458.69,1125,462.69,1121,458.69,1125,467.69" style="stroke:#181818;stroke-width:1.0;"/><line style="stroke:#181818;stroke-width:1.0;" x1="1125" x2="1125" y1="462.69" y2="454.69"/><text fill="#000000" font-family="sans-serif" font-size="13" lengthAdjust="spacing" textLength="55" x="1126" y="329.0669">depends</text></g><!--link MacOSHomebrew to brew:openssl--><g id="link_MacOSHomebrew_brew:openssl"><path codeLine="78" d="M943.43,279.83 C937.63,291.41 932.07,303.9 928,316 C911.86,364.02 904.58,423.44 901.68,454.61 " fill="none" id="MacOSHomebrew-brew:openssl" style="stroke:#181818;stroke-width:1.0;"/><polygon fill="none" points="949.51,268.15,943.1918,271.6257,943.97,278.7947,950.2882,275.319,949.51,268.15" style="stroke:#181818;stroke-width:1.0;"/><polygon fill="#181818" points="900.56,467.8,905.3078,459.1711,900.9834,462.818,897.3365,458.4936,900.56,467.8" style="stroke:#181818;stroke-width:1.0;"/><line style="stroke:#181818;stroke-width:1.0;" x1="900.9834" x2="901.66" y1="462.818" y2="454.845"/><text fill="#000000" font-family="sans-serif" font-size="13" lengthAdjust="spacing" textLength="55" x="929" y="329.0669">depends</text></g><!--SRC=[hLHTQzim57tthn1Y4DZcFfHHXYY1ZMwqq2zmAEtJK9GRMzYIZAGs7IN_VPBifBOS9ndKBuckxZttdgCZ6R38G4qrjKeZGf9aCfcW2vXpAXDMKMDGzjTO48GqGSH5NO40QGsQKLCISYMDfLNrjLtEm5ZqbY3tdPoWTXEqSQiG_89eRTCSx2Ob0_t26NGI7b-MysITr9ILD8TsW1PJAWj8yxomI2tRGGa95QZzCiS9uq-_RX_UBgwo- -iVJskCmox8HG0OW3i4uyO0ZSxFRzK2fjEs7UEQLO2mcvcykYPu6ANFji29Wuo4KcawHJZ2nmWHj83QJM8QhGLbTraazOsFNIe1Smsh3r3Sm-pWt6lpyvbNYvbIbHdJm6UHkinJfkIIvptE_OaRwd5-pFmcUyfEO-O-zW6C7LNX7DmiMA6OsiNVDplCky4YWijybQxElgMlty_-k1z1Iy17PLe7pmhAvSvqPo3b9HhT76rKyRc7tZt4M55DBIkEctkBlqwQW-bxEj8FUyZeZEz1LrlTGnOXFZQYDQj5VqcbSCrn_shXpKt_7CRfm7gFySOEvhsgPqvyT9Ldjsrre2gG_GrEsO7BGdI_mSgSvDpYuHlIVeticxIEnlkktxxqS9W7qGEfE_S_owu7jDhu_ruQvSgCYImRNehjJlTPwRZk4EAHilHwHOxbqe9UKWRzPsSGz-zFyWy0]--></g></svg>